# xmcd
#
# Track frame offsets: 
#        150
#        18806
#        38092
#        58587
#        84164
#        102880
#        123382
#        145079
#
# Disc length: 2269 seconds
#
# Revision: 0
# Processed by: cddbd v1.5.2PL0 Copyright (c) Steve Scherf et al.
# Submitted via: ExactAudioCopy v1.0b3
#
DISCID=5808db08
DTITLE=Jim Cuddy - The Cassete demos
DYEAR=2011
DGENRE=Country
TTITLE0=Regular days
TTITLE1=Skyscaper soul
TTITLE2=Still want you
TTITLE3=Everyone watched the wedding
TTITLE4=Rregular days
TTITLE5=Skycraper soul
TTITLE6=Still want you
TTITLE7=Everyone watched the wedding 
EXTD=
EXTT0=
EXTT1=
EXTT2=
EXTT3=
EXTT4=
EXTT5=
EXTT6=
EXTT7=
PLAYORDER=
